<?xml version="1.0" encoding="UTF-8"?>
<svg version="1.1" xmlns="http://www.w3.org/2000/svg" width="512" height="512">
<path d="M0 0 C20.16385716 16.92406883 34.03403794 38.21257817 41.06640625 63.625 C41.5459375 65.34589844 41.5459375 65.34589844 42.03515625 67.1015625 C48.70791963 95.95508565 43.96009619 127.00362151 29.81640625 152.8125 C29.49454346 153.40514648 29.17268066 153.99779297 28.84106445 154.60839844 C22.00449597 166.50059407 12.69821333 176.44039929 3.04589844 186.04956055 C1.87442815 187.22675177 0.70358419 188.40456654 -0.46669006 189.58294678 C-3.61074995 192.74476135 -6.76409581 195.89714947 -9.91991138 199.04722571 C-12.56903814 201.69323526 -15.2135205 204.34386317 -17.85808158 206.99443465 C-24.10383036 213.25416852 -30.35726308 219.50615004 -36.61572266 225.75317383 C-43.03947179 232.16544323 -49.45033366 238.59039092 -55.85493398 245.02178162 C-61.38601315 250.5751162 -66.92492893 256.12054903 -72.4700706 261.65984184 C-75.7678941 264.95431856 -79.06285771 268.25152126 -82.35031891 271.55634117 C-85.44405049 274.66569814 -88.54758269 277.76494801 -91.65844536 280.85716248 C-92.78805731 281.98313152 -93.91439102 283.11240235 -95.03687477 284.24547768 C-105.22077281 294.51798467 -116.33727065 303.27005257 -129.24609375 309.9375 C-130.03951172 310.35064453 -130.83292969 310.76378906 -131.65039062 311.18945312 C-158.77199743 324.82565416 -192.81577275 326.42208906 -221.62109375 317.4375 C-238.19584768 311.48346218 -253.2115444 302.84001115 -265.93359375 290.625 C-266.88234375 289.7175 -267.83109375 288.81 -268.80859375 287.875 C-269.86046875 286.76125 -269.86046875 286.76125 -270.93359375 285.625 C-271.61421875 284.92375 -272.29484375 284.2225 -272.99609375 283.5 C-278.92490213 274.70241337 -280.27166499 265.26638203 -278.4609375 254.92578125 C-275.9465481 245.094067 -269.46284264 237.52559024 -260.828125 232.3671875 C-251.87166903 228.07649 -240.60169273 228.13777021 -231.18359375 231 C-226.22352496 233.07907075 -222.41095057 236.33007852 -218.41088867 239.83374023 C-208.00365036 248.9071049 -195.61114335 253.38991452 -181.74609375 252.90625 C-160.49800796 250.78144142 -148.43735583 238.26720844 -133.97949219 223.84790039 C-132.92390232 222.79859518 -131.86813107 221.7494724 -130.81219482 220.70051575 C-127.38562749 217.29472871 -123.96415667 213.88384554 -120.54296875 210.47265625 C-119.35627502 209.29001788 -118.16955046 208.10741045 -116.98279572 206.9248333 C-111.41131016 201.37233094 -105.84219288 195.81746671 -100.27600455 190.2596541 C-93.87928394 183.87272292 -87.47434771 177.49417971 -81.06239295 171.12254339 C-76.0835224 166.17389762 -71.11241458 161.21753845 -66.14698052 156.25541109 C-63.19068157 153.30145234 -60.23123125 150.35083059 -57.26348114 147.40837288 C-54.47366844 144.64196238 -51.69367848 141.86603558 -48.92066193 139.08279228 C-47.90753774 138.06917582 -46.89104541 137.05891172 -45.87078857 136.05247498 C-35.38739972 125.70309479 -27.05491393 113.76282237 -25.93359375 98.625 C-25.77890625 96.6759375 -25.77890625 96.6759375 -25.62109375 94.6875 C-25.86228937 80.57755612 -31.24877106 68.42054932 -40.87109375 58.25 C-51.55997529 48.23556032 -64.38575887 44.49045355 -78.93359375 44.625 C-98.4993808 46.09571688 -110.74879018 58.13012835 -123.8006382 71.34171486 C-125.92734015 73.49419137 -128.0604444 75.64014009 -130.19523621 77.78459167 C-134.71786866 82.32993816 -139.23253334 86.88314718 -143.74609375 91.4375 C-148.99664582 96.73530425 -154.25044032 102.02980825 -159.51270103 107.31598473 C-161.61292741 109.42916285 -163.70703812 111.54827556 -165.80097961 113.66767883 C-167.08552983 114.95949217 -168.37036059 116.25102663 -169.65551758 117.54223633 C-170.23479507 118.13184647 -170.81407257 118.7214566 -171.41090393 119.32893372 C-176.56086859 124.48024447 -176.56086859 124.48024447 -179.93359375 125.625 C-186.56010658 125.49997146 -192.37854916 123.22293378 -198.56640625 120.9765625 C-210.48581334 117.05635662 -222.72405997 115.89595442 -235.15625 115.04370117 C-237.19037071 114.90040972 -239.22173639 114.73485269 -241.25390625 114.56640625 C-242.44258301 114.48076416 -243.63125977 114.39512207 -244.85595703 114.30688477 C-247.93359375 113.625 -247.93359375 113.625 -250.35107422 112.12866211 C-252.3504852 108.96544711 -252.62094018 106.86530001 -252.53454971 103.1595068 C-251.26031273 97.7854653 -246.82912694 94.31631161 -242.99194336 90.58227539 C-242.02917107 89.61385002 -241.06834826 88.64348325 -240.10932922 87.67134094 C-237.50476754 85.04288419 -234.87297787 82.44337556 -232.234658 79.84886098 C-229.46427967 77.11631636 -226.71762958 74.36010129 -223.96766663 71.60704041 C-219.33806054 66.97936018 -214.69121376 62.3695833 -210.03295898 57.77075195 C-204.67848131 52.48429411 -199.34857681 47.17407035 -194.03224558 41.84926993 C-188.89181034 36.70124945 -183.73710752 31.56776257 -178.57495308 26.44152641 C-176.39230969 24.27395961 -174.21399499 22.10218268 -172.03913689 19.9268055 C-150.3315854 -1.76251919 -150.3315854 -1.76251919 -136.93359375 -9.375 C-136.14456161 -9.83690735 -135.35552948 -10.2988147 -134.54258728 -10.77471924 C-125.4875495 -15.86777712 -115.93360468 -19.60770138 -105.93359375 -22.375 C-104.78632813 -22.6946875 -103.6390625 -23.014375 -102.45703125 -23.34375 C-66.69101351 -31.61512027 -28.67653106 -22.47303659 0 0 Z " fill="#000000" transform="translate(467.93359375,25.375)"/>
<path d="M0 0 C8.99795318 7.79107421 16.27569106 16.31412282 17.28125 28.6015625 C17.69262594 38.81441728 14.26459689 48.03030572 7.37109375 55.5546875 C0.42784083 62.14797807 -8.25608592 65.77283552 -17.87890625 65.64453125 C-28.43697395 64.77504332 -36.34753957 60.92381689 -44.37890625 54.14453125 C-54.19560295 45.86770854 -66.36616474 40.78731878 -79.4453125 41.36328125 C-101.20299076 43.87781228 -112.88490457 55.51341294 -127.81713867 70.40576172 C-128.87110608 71.45344436 -129.92525482 72.50094462 -130.97956848 73.54827881 C-134.40133021 76.9492584 -137.81799431 80.35533524 -141.234375 83.76171875 C-142.41980806 84.94309627 -143.60527187 86.12444294 -144.79076576 87.30575943 C-150.3574489 92.85345748 -155.92176211 98.40351906 -161.48314685 103.95652854 C-167.87136501 110.33496218 -174.2677943 116.70501189 -180.67125815 123.06813896 C-185.64505944 128.01169425 -190.61107779 132.96298309 -195.57143098 137.92003167 C-198.52384849 140.87011102 -201.47940444 143.81686588 -204.4432888 146.75542831 C-207.23066076 149.51936115 -210.00816567 152.29285437 -212.77873039 155.07363129 C-213.78982242 156.08521473 -214.80426929 157.09345932 -215.82250595 158.0978508 C-227.99782781 170.11697354 -236.14474814 182.65292032 -236.37890625 200.14453125 C-236.19166665 214.13132945 -231.11776739 226.04852512 -221.69140625 236.39453125 C-211.13511831 246.21872764 -198.60393241 250.20975035 -184.43237305 250.13256836 C-164.45007484 249.39034972 -151.76215015 236.99455503 -138.52170563 223.42112923 C-136.35141633 221.19802332 -134.17011024 218.98627039 -131.98553467 216.77720642 C-125.78370977 210.50253866 -119.59958518 204.21063248 -113.42822266 197.90600586 C-109.63520974 194.03264325 -105.82770358 190.17402661 -102.01091766 186.32409477 C-100.56512938 184.8597134 -99.12505462 183.38966769 -97.6909256 181.91386604 C-95.69061881 179.85588237 -93.67247423 177.81707916 -91.64941406 175.78149414 C-91.06536301 175.17115829 -90.48131195 174.56082245 -89.87956238 173.93199158 C-86.0688471 170.14802094 -83.45614059 168.80395024 -77.87890625 168.64453125 C-75.56225586 169.03417969 -75.56225586 169.03417969 -73.53125 169.75390625 C-72.75974609 170.01429688 -71.98824219 170.2746875 -71.19335938 170.54296875 C-70.40896484 170.82398438 -69.62457031 171.105 -68.81640625 171.39453125 C-54.98409653 176.24466879 -41.20225112 178.22867055 -26.65625 179.22583008 C-24.62212929 179.36912153 -22.59076361 179.53467856 -20.55859375 179.703125 C-19.36991699 179.78876709 -18.18124023 179.87440918 -16.95654297 179.96264648 C-13.87890625 180.64453125 -13.87890625 180.64453125 -11.46142578 182.14086914 C-9.4620148 185.30408414 -9.19155982 187.40423124 -9.27795029 191.11002445 C-10.55218727 196.48406595 -14.98337306 199.95321964 -18.82055664 203.68725586 C-19.78332893 204.65568123 -20.74415174 205.626048 -21.70317078 206.59819031 C-24.30773246 209.22664706 -26.93952213 211.82615569 -29.577842 214.42067027 C-32.34822033 217.15321489 -35.09487042 219.90942996 -37.84483337 222.66249084 C-42.47443946 227.29017107 -47.12128624 231.89994795 -51.77954102 236.4987793 C-57.13401869 241.78523714 -62.46392319 247.0954609 -67.78025442 252.42026132 C-72.92068966 257.5682818 -78.07539248 262.70176868 -83.23754692 267.82800484 C-85.42019031 269.99557164 -87.59850501 272.16734857 -89.77336311 274.34272575 C-111.4809146 296.03205044 -111.4809146 296.03205044 -124.87890625 303.64453125 C-125.66793839 304.1064386 -126.45697052 304.56834595 -127.26991272 305.04425049 C-136.32593302 310.13786099 -145.87873499 313.87428444 -155.87890625 316.64453125 C-157.01457031 316.96421875 -158.15023437 317.28390625 -159.3203125 317.61328125 C-179.00469513 322.19993351 -201.56153912 321.57847479 -220.87890625 315.64453125 C-221.5548584 315.44085938 -222.23081055 315.2371875 -222.92724609 315.02734375 C-238.67849295 310.10721458 -253.78916798 301.89246552 -265.87890625 290.64453125 C-266.38728027 290.18240234 -266.8956543 289.72027344 -267.41943359 289.24414062 C-284.73987785 273.38395584 -296.6225999 253.25254738 -302.87890625 230.64453125 C-303.19859375 229.49726563 -303.51828125 228.35 -303.84765625 227.16796875 C-311.28014108 195.02935378 -304.33912696 162.10058921 -287.4453125 134.296875 C-280.7355065 124.36887449 -272.3979538 115.86433496 -263.95605469 107.43115234 C-262.7833235 106.25242062 -261.61099752 105.07328565 -260.43904114 103.89378357 C-257.28452057 100.72175606 -254.12369454 97.55608826 -250.96105099 94.39216185 C-248.97864362 92.40832417 -246.9976708 90.42306536 -245.01718903 88.43730545 C-238.08892354 81.49059396 -231.15556963 74.54900906 -224.21728516 67.61230469 C-217.77966168 61.17588278 -211.35328254 54.72838412 -204.93206573 48.27559793 C-199.39157001 42.70884879 -193.84328624 37.14994219 -188.28901124 31.59694159 C-184.98367009 28.29210718 -181.6814188 24.98433231 -178.3870163 21.66859055 C-175.28665206 18.54868899 -172.17659637 15.43876857 -169.05924034 12.33584785 C-167.92596235 11.20463961 -166.79599526 10.07010156 -165.66987801 8.9317646 C-156.04987537 -0.78571928 -145.70325867 -8.77444921 -133.50390625 -15.10546875 C-132.79258545 -15.47687988 -132.08126465 -15.84829102 -131.34838867 -16.23095703 C-88.2567066 -38.10437328 -36.68972582 -30.01886658 0 0 Z " fill="#000000" transform="translate(305.87890625,192.35546875)"/>
</svg>
